<svg xmlns="http://www.w3.org/2000/svg" enable-background="new 0 0 512 512" viewBox="0 0 512 512" id="setting"><path d="M321.328 137.96l-14.75-1.28c-4.95-.43-9.26-3.64-10.99-8.31-1.12-3.02-2.35-5.99-3.69-8.9-2.08-4.52-1.32-9.85 1.89-13.66l9.52-11.34c4.33-5.14 4-12.74-.76-17.49l-30.85-30.85c-4.75-4.75-12.35-5.08-17.5-.76l-11.32 9.53c-3.82 3.2-9.14 3.97-13.67 1.88-2.91-1.33-5.88-2.57-8.9-3.69-4.66-1.73-7.87-6.03-8.3-10.99l-1.28-14.74c-.58-6.7-6.19-11.84-12.91-11.84h-43.63c-6.72 0-12.33 5.14-12.91 11.84l-1.28 14.74c-.43 4.96-3.64 9.26-8.3 10.99-3.03 1.12-5.99 2.36-8.9 3.69-4.53 2.09-9.86 1.32-13.67-1.88l-11.33-9.53c-5.14-4.32-12.74-3.99-17.49.76l-30.86 30.85c-4.75 4.75-5.08 12.35-.76 17.49l9.53 11.34c3.2 3.81 3.97 9.14 1.88 13.66-1.33 2.9-2.56 5.87-3.68 8.88-1.73 4.66-6.03 7.87-10.97 8.3l-14.78 1.3c-6.69.58-11.82 6.19-11.82 12.9v43.66c0 6.72 5.13 12.32 11.82 12.91l14.78 1.29c4.95.44 9.25 3.65 10.98 8.31 1.11 3 2.33 5.95 3.66 8.84 2.08 4.52 1.32 9.84-1.87 13.65l-9.54 11.37c-4.32 5.15-3.99 12.74.76 17.49l30.88 30.87c4.74 4.75 12.34 5.08 17.48.77l11.37-9.54c3.81-3.19 9.13-3.96 13.65-1.88 2.89 1.33 5.85 2.56 8.85 3.67 4.66 1.73 7.87 6.03 8.3 10.98l1.3 14.77c.59 6.69 6.19 11.82 12.9 11.82h43.66c6.72 0 12.32-5.13 12.91-11.82l1.29-14.77c.44-4.95 3.65-9.25 8.31-10.98 3-1.11 5.95-2.34 8.85-3.67 4.52-2.08 9.84-1.31 13.65 1.88l11.37 9.54c5.14 4.31 12.73 3.98 17.48-.77l30.87-30.87c4.75-4.75 5.08-12.34.77-17.49l-9.54-11.37c-3.2-3.81-3.96-9.13-1.88-13.65 1.34-2.9 2.56-5.86 3.68-8.87 1.73-4.66 6.04-7.87 10.99-8.3l14.75-1.28c6.69-.59 11.83-6.19 11.83-12.91v-43.64C333.159 144.14 328.018 138.54 321.328 137.96zM175.998 260.4c-48.45 0-87.72-39.27-87.72-87.72s39.27-87.73 87.72-87.73c48.45 0 87.73 39.28 87.73 87.73S224.449 260.4 175.998 260.4zM492.958 379.94l-6.21-29.31c-.96-4.51-5.2-7.54-9.78-6.98l-10.11 1.23c-3.39.42-6.74-1.14-8.56-4.02-1.17-1.86-2.41-3.67-3.73-5.44-2.03-2.74-2.27-6.42-.67-9.43l4.78-8.96c2.17-4.07.87-9.13-3-11.64l-25.11-16.32c-3.86-2.52-9.01-1.66-11.85 1.98l-6.25 8.01c-2.1 2.69-5.56 3.96-8.89 3.21-2.16-.48-4.33-.88-6.5-1.2-3.39-.5-6.16-2.93-7.16-6.2l-2.96-9.72c-1.34-4.41-5.84-7.07-10.35-6.11l-29.29 6.22c-4.52.95-7.55 5.2-6.98 9.78l1.24 10.08c.42 3.4-1.13 6.75-4.03 8.57-1.85 1.18-3.67 2.42-5.45 3.74-2.74 2.04-6.42 2.28-9.43.67l-8.96-4.78c-4.07-2.17-9.13-.87-11.64 3l-16.32 25.11c-2.52 3.87-1.66 9.02 1.98 11.85l8.01 6.26c2.69 2.1 3.96 5.56 3.21 8.88-.48 2.16-.88 4.33-1.2 6.51-.5 3.38-2.93 6.16-6.2 7.16l-9.72 2.95c-4.41 1.34-7.06 5.84-6.11 10.35l6.21 29.29c.96 4.52 5.21 7.55 9.79 6.99l10.08-1.25c3.4-.41 6.75 1.14 8.57 4.03 1.17 1.86 2.42 3.67 3.73 5.44 2.04 2.74 2.27 6.41.67 9.42l-4.78 8.99c-2.16 4.07-.86 9.12 3.01 11.63l25.12 16.33c3.86 2.51 9.01 1.66 11.85-1.97l6.27-8.03c2.1-2.68 5.56-3.95 8.89-3.21 2.14.49 4.3.89 6.46 1.2 3.38.5 6.15 2.92 7.15 6.19l2.98 9.74c1.34 4.41 5.84 7.06 10.34 6.1l29.32-6.21c4.51-.96 7.54-5.2 6.979-9.78l-1.24-10.11c-.41-3.39 1.14-6.73 4.03-8.56 1.84-1.16 3.65-2.41 5.42-3.72 2.74-2.03 6.41-2.27 9.42-.67l8.99 4.78c4.07 2.17 9.12.86 11.63-3l16.33-25.13c2.51-3.86 1.65-9-1.98-11.84l-8.01-6.28c-2.69-2.1-3.96-5.55-3.21-8.88.48-2.15.88-4.3 1.2-6.47.49-3.37 2.92-6.15 6.18-7.15l9.74-2.97C491.268 388.94 493.919 384.45 492.958 379.94zM434.819 420.48c-18.12 27.87-55.41 35.78-83.29 17.66-27.88-18.12-35.79-55.41-17.67-83.29 18.12-27.88 55.42-35.79 83.29-17.67C445.029 355.3 452.938 392.6 434.819 420.48z"></path></svg>