<svg xmlns="http://www.w3.org/2000/svg" width="48" height="48" id="internet-explorer"><path d="M18.07 15c-3 1.42-5.17 3.74-7.46 6a11.38 11.38 0 0 1 1.91-4.7 14.91 14.91 0 0 1 12.2-7.1c2.21-.1 4.07-1.13 6.1-1.67A13.39 13.39 0 0 1 37 7a4.6 4.6 0 0 1 3.9 5.61 16.69 16.69 0 0 1-1.09 3.8 1.78 1.78 0 0 0 .11 1.59 15.56 15.56 0 0 1 1.59 7.32c0 1.41-.14 1.51-1.57 1.51H20.29c-1.35 0-1.5.21-1.17 1.55.89 3.7 5.07 5.92 9 4.79a6.51 6.51 0 0 0 3.55-2.34 1.84 1.84 0 0 1 1.68-.8c2 .05 4.08 0 6.12 0 1.1 0 1.16.07.72 1a15.54 15.54 0 0 1-8.74 8.38 15.23 15.23 0 0 1-12-.26 1.48 1.48 0 0 0-1.36.06A19.91 19.91 0 0 1 12 41.14c-3.32.45-5.37-1.33-5.49-4.69-.15-4 1.32-7.39 3.22-10.71a44.11 44.11 0 0 1 8-10.39Zm7.78 7.51h5.75c1.32 0 1.48-.22 1.11-1.49a7.06 7.06 0 0 0-8.5-4.68A6.91 6.91 0 0 0 19 21.47c-.12.71 0 1 .83 1 2-.03 4.01 0 6.02 0Zm-15 7.72a14 14 0 0 0-1.81 6.48 3 3 0 0 0 3 3.12 9.28 9.28 0 0 0 4.6-1c.86-.4.86-.47.09-1a15.74 15.74 0 0 1-4.88-5.44c-.27-.72-.56-1.39-.97-2.2ZM31.8 10c.1.16.12.23.17.25a16.17 16.17 0 0 1 6.75 5.61c.3.45.46.21.58-.13a11.22 11.22 0 0 0 .75-3.41A3.27 3.27 0 0 0 37.42 9c-2.01-.48-3.8.28-5.62 1Z"></path></svg>