<svg xmlns="http://www.w3.org/2000/svg" data-name="Layer 1" viewBox="0 0 128 128" id="code-optimization"><path d="M2,110H126a2,2,0,0,0,1.76-3L115.87,85l0,0a4,4,0,0,0,.15-1V26a4,4,0,0,0-4-4H47.48a5.89,5.89,0,0,1,0,4H112V84H16V68.85a5.89,5.89,0,0,1-4,0V84a4,4,0,0,0,.15,1l0,0L.24,107A2,2,0,0,0,2,110ZM15.08,88h97.83l9.73,18H5.35Z"></path><polygon points="55.11 98.25 53 102.25 75 102.25 72.89 98.25 55.11 98.25"></polygon><path d="M32.25 55.63H47.38a2 2 0 0 0 0-4H32.25a2 2 0 0 0 0 4zM32.25 63.63H53.38a2 2 0 0 0 0-4H32.25a2 2 0 0 0 0 4zM32.25 71.63H58.38a2 2 0 0 0 0-4H32.25a2 2 0 0 0 0 4zM72.91 52.71a2 2 0 0 0-2.83 0l-6.37 6.38a2 2 0 0 0 0 2.83l6.38 6.38a2 2 0 0 0 2.83-2.83l-5-5 5-5A2 2 0 0 0 72.91 52.71zM90.71 68.29a2 2 0 0 0 2.83 0l6.38-6.37a2 2 0 0 0 0-2.83l-6.37-6.37a2 2 0 0 0-2.83 2.83l5 5-5 5A2 2 0 0 0 90.71 68.29zM82.37 53.45l-4.87 13.5a2 2 0 1 0 3.76 1.36l4.88-13.5a2 2 0 0 0-3.76-1.36zM98.5 36.17H94.33a2 2 0 0 0 0 4H98.5a2 2 0 0 0 0-4zM86.5 36.17H82.33a2 2 0 0 0 0 4H86.5a2 2 0 0 0 0-4z"></path><path d="M108,34a4,4,0,0,0-4-4H24a4,4,0,0,0-4,4V76a4,4,0,0,0,4,4h80a4,4,0,0,0,4-4V68.85a5.89,5.89,0,0,1-4,0V76H24V46h80v5.05a5.89,5.89,0,0,1,4,0ZM24,42V34h80v8Z"></path><path d="M104 56.7v6.5a2 2 0 0 0 4 .1V56.6a2 2 0 0 0-4 .1zM14 54.7a2 2 0 0 0-2 2v6.5a2 2 0 0 0 4 0V56.7A2 2 0 0 0 14 54.7zM41.83 22h-6.5a2 2 0 0 0-.2 4H42a2 2 0 0 0-.2-4zM29.33 24a6 6 0 0 1 .36-2H16a4 4 0 0 0-4 4V51.05a5.89 5.89 0 0 1 4 0V26H29.68A6 6 0 0 1 29.33 24z"></path></svg>