<svg xmlns="http://www.w3.org/2000/svg" viewBox="0 0 64 64" id="school"><path d="M9 56H7a1 1 0 0 0 0 2h12V39H9zm3-15h4a1 1 0 0 1 0 2h-4a1 1 0 0 1 0-2zm0 5h4a1 1 0 0 1 0 2h-4a1 1 0 0 1 0-2zm0 5h4a1 1 0 0 1 0 2h-4a1 1 0 0 1 0-2zm9 5v2h4v-9a3 3 0 0 1 3-3h8a3 3 0 0 1 3 3v9h4V30H21zm11-21a4 4 0 1 1-4 4 4 4 0 0 1 4-4z"></path><path d="M27 49v9h4V48h-3a1 1 0 0 0-1 1zm9-1h-3v10h4v-9a1 1 0 0 0-1-1z"></path><circle cx="32" cy="39" r="2"></circle><path d="M57 56h-2V38H45v20h12a1 1 0 0 0 0-2Zm-9-15h4a1 1 0 0 1 0 2h-4a1 1 0 0 1 0-2Zm0 5h4a1 1 0 0 1 0 2h-4a1 1 0 0 1 0-2Zm0 5h4a1 1 0 0 1 0 2h-4a1 1 0 0 1 0-2ZM45 33h11v3H45zM8 34h11v3H8zM45 26.55l-13-8.36-13 8.36V28h26v-1.45zM32.54 16.16l.46.3V13h7V7h-7a1 1 0 0 0-2 0v9.46l.46-.3a1 1 0 0 1 1.08 0Z"></path></svg>